<svg width="17" height="19" viewBox="0 0 17 19" fill="none" xmlns="http://www.w3.org/2000/svg">
<g filter="url(#filter0_ii_2123_1799)">
<path d="M1 3C1 1.89543 1.89543 1 3 1H14C15.1046 1 16 1.89543 16 3V16C16 17.1046 15.1046 18 14 18H3C1.89543 18 1 17.1046 1 16V3Z" fill="#9CAEF3"/>
</g>
<path d="M3 1.5H14C14.8284 1.5 15.5 2.17157 15.5 3V16C15.5 16.8284 14.8284 17.5 14 17.5H3C2.17157 17.5 1.5 16.8284 1.5 16V3C1.5 2.17157 2.17157 1.5 3 1.5Z" stroke="#2054C1" stroke-opacity="0.33"/>
<path d="M5.5 7L4 8.5L8.5 13L13 8.5L11.5 7L8.5 10L5.5 7Z" fill="#4D6185"/>
<rect x="0.5" y="0.5" width="16" height="18" rx="2.5" stroke="white"/>
<defs>
<filter id="filter0_ii_2123_1799" x="0" y="0" width="17" height="19" filterUnits="userSpaceOnUse" color-interpolation-filters="sRGB">
<feFlood flood-opacity="0" result="BackgroundImageFix"/>
<feBlend mode="normal" in="SourceGraphic" in2="BackgroundImageFix" result="shape"/>
<feColorMatrix in="SourceAlpha" type="matrix" values="0 0 0 0 0 0 0 0 0 0 0 0 0 0 0 0 0 0 127 0" result="hardAlpha"/>
<feMorphology radius="2" operator="dilate" in="SourceAlpha" result="effect1_innerShadow_2123_1799"/>
<feOffset dx="-4" dy="-4"/>
<feGaussianBlur stdDeviation="1.5"/>
<feComposite in2="hardAlpha" operator="arithmetic" k2="-1" k3="1"/>
<feColorMatrix type="matrix" values="0 0 0 0 0.764423 0 0 0 0 0.813075 0 0 0 0 1 0 0 0 1 0"/>
<feBlend mode="normal" in2="shape" result="effect1_innerShadow_2123_1799"/>
<feColorMatrix in="SourceAlpha" type="matrix" values="0 0 0 0 0 0 0 0 0 0 0 0 0 0 0 0 0 0 127 0" result="hardAlpha"/>
<feMorphology radius="2" operator="dilate" in="SourceAlpha" result="effect2_innerShadow_2123_1799"/>
<feOffset dx="4" dy="4"/>
<feGaussianBlur stdDeviation="1.5"/>
<feComposite in2="hardAlpha" operator="arithmetic" k2="-1" k3="1"/>
<feColorMatrix type="matrix" values="0 0 0 0 0.534247 0 0 0 0 0.615262 0 0 0 0 0.855852 0 0 0 1 0"/>
<feBlend mode="normal" in2="effect1_innerShadow_2123_1799" result="effect2_innerShadow_2123_1799"/>
</filter>
</defs>
</svg>
